name analog
datacolumns 19
datarows 41
range 0.4585 0.47850000000000004
endheader
time	ground_force_vx	ground_force_vy	ground_force_vz	ground_force_px	ground_force_py	ground_force_pz	l_ground_force_vx	l_ground_force_vy	l_ground_force_vz	l_ground_force_px	l_ground_force_py	l_ground_force_pz	ground_torque_x	ground_torque_y	ground_torque_z	l_ground_torque_x	l_ground_torque_y	l_ground_torque_z
0.4585	-0.0	-0.0	-0.0	-5.821494102478027	-3.096773624420166	-770.8112182617188	-0.0	-0.0	-0.0	-0.0	-0.0	-0.0	-0.0	-0.0	-0.0	-0.0	-0.0	-0.0
0.459	-0.0	-0.0	-0.0	-6.001765727996826	-2.850287437438965	-764.44677734375	-0.0	-0.0	-0.0	-0.0	-0.0	-0.0	-0.0	-0.0	-0.0	-0.0	-0.0	-0.0
0.4595	-0.0	-0.0	-0.0	-7.449949741363525	-1.625322699546814	-762.7648315429688	-0.0	-0.0	-0.0	-0.0	-0.0	-0.0	-0.0	-0.0	-0.0	-0.0	-0.0	-0.0
0.46	-0.0	-0.0	-0.0	-9.613637924194336	-1.5136104822158811	-761.1926879882812	-0.0	-0.0	-0.0	-0.0	-0.0	-0.0	-0.0	-0.0	-0.0	-0.0	-0.0	-0.0
0.4605	-0.0	-0.0	-0.0	-11.26611614227295	-0.2235563099384308	-765.0717163085938	-0.0	-0.0	-0.0	-0.0	-0.0	-0.0	-0.0	-0.0	-0.0	-0.0	-0.0	-0.0
0.461	-0.0	-0.0	-0.0	-12.892892837524414	0.1343530714511871	-769.75830078125	-0.0	-0.0	-0.0	-0.0	-0.0	-0.0	-0.0	-0.0	-0.0	-0.0	-0.0	-0.0
0.4615	-0.0	-0.0	-0.0	-13.269768714904783	0.6001565456390381	-776.732177734375	-0.0	-0.0	-0.0	-0.0	-0.0	-0.0	-0.0	-0.0	-0.0	-0.0	-0.0	-0.0
0.462	-0.0	-0.0	-0.0	-12.333611488342283	0.1106380522251129	-785.3910522460938	-0.0	-0.0	-0.0	-0.0	-0.0	-0.0	-0.0	-0.0	-0.0	-0.0	-0.0	-0.0
0.4625	-0.0	-0.0	-0.0	-11.417168617248535	0.1548687070608139	-792.7246704101562	-0.0	-0.0	-0.0	-0.0	-0.0	-0.0	-0.0	-0.0	-0.0	-0.0	-0.0	-0.0
0.463	-0.0	-0.0	-0.0	-10.325928688049316	-0.4666194021701813	-799.7744750976562	-0.0	-0.0	-0.0	-0.0	-0.0	-0.0	-0.0	-0.0	-0.0	-0.0	-0.0	-0.0
0.4635	-0.0	-0.0	-0.0	-9.098865509033203	-0.7803454399108887	-804.8129272460938	-0.0	-0.0	-0.0	-0.0	-0.0	-0.0	-0.0	-0.0	-0.0	-0.0	-0.0	-0.0
0.464	-0.0	-0.0	-0.0	-7.7164788246154785	-1.2697631120681765	-807.7225341796875	-0.0	-0.0	-0.0	-0.0	-0.0	-0.0	-0.0	-0.0	-0.0	-0.0	-0.0	-0.0
0.4645	-0.0	-0.0	-0.0	-6.356005668640137	-1.1366558074951172	-810.8986206054688	-0.0	-0.0	-0.0	-0.0	-0.0	-0.0	-0.0	-0.0	-0.0	-0.0	-0.0	-0.0
0.465	-0.0	-0.0	-0.0	-4.549378395080566	-1.113862156867981	-809.9300537109375	-0.0	-0.0	-0.0	-0.0	-0.0	-0.0	-0.0	-0.0	-0.0	-0.0	-0.0	-0.0
0.4655	-0.0	-0.0	-0.0	-2.9439797401428223	-0.6684285998344421	-805.5150146484375	-0.0	-0.0	-0.0	-0.0	-0.0	-0.0	-0.0	-0.0	-0.0	-0.0	-0.0	-0.0
0.466	-0.0	-0.0	-0.0	-2.698695182800293	0.2451343685388565	-797.0385131835938	-0.0	-0.0	-0.0	-0.0	-0.0	-0.0	-0.0	-0.0	-0.0	-0.0	-0.0	-0.0
0.4665	-0.0	-0.0	-0.0	-3.0998785495758057	0.9804344177246094	-790.2406616210938	-0.0	-0.0	-0.0	-0.0	-0.0	-0.0	-0.0	-0.0	-0.0	-0.0	-0.0	-0.0
0.467	-0.0	-0.0	-0.0	-4.215097904205322	1.9604744911193848	-785.2084350585938	-0.0	-0.0	-0.0	-0.0	-0.0	-0.0	-0.0	-0.0	-0.0	-0.0	-0.0	-0.0
0.4675	-0.0	-0.0	-0.0	-5.152041435241699	2.852710008621216	-782.9998779296875	-0.0	-0.0	-0.0	-0.0	-0.0	-0.0	-0.0	-0.0	-0.0	-0.0	-0.0	-0.0
0.468	-0.0	-0.0	-0.0	-5.710146903991699	2.763715982437134	-781.4119262695312	-0.0	-0.0	-0.0	-0.0	-0.0	-0.0	-0.0	-0.0	-0.0	-0.0	-0.0	-0.0
0.4685	-0.0	-0.0	-0.0	-5.553969383239746	2.8080172538757324	-781.062255859375	-0.0	-0.0	-0.0	-0.0	-0.0	-0.0	-0.0	-0.0	-0.0	-0.0	-0.0	-0.0
0.46900000000000003	-0.0	-0.0	-0.0	-6.379034519195557	2.918297052383423	-783.6189575195312	-0.0	-0.0	-0.0	-0.0	-0.0	-0.0	-0.0	-0.0	-0.0	-0.0	-0.0	-0.0
0.46950000000000003	-0.0	-0.0	-0.0	-6.489238262176514	2.7839488983154297	-788.2060546875	-0.0	-0.0	-0.0	-0.0	-0.0	-0.0	-0.0	-0.0	-0.0	-0.0	-0.0	-0.0
0.47000000000000003	-0.0	-0.0	-0.0	-6.220249176025391	2.609246015548706	-793.682373046875	-0.0	-0.0	-0.0	-0.0	-0.0	-0.0	-0.0	-0.0	-0.0	-0.0	-0.0	-0.0
0.47050000000000003	-0.0	-0.0	-0.0	-5.909847736358643	1.0504150390625	-799.773193359375	-0.0	-0.0	-0.0	-0.0	-0.0	-0.0	-0.0	-0.0	-0.0	-0.0	-0.0	-0.0
0.47100000000000003	-0.0	-0.0	-0.0	-5.4449005126953125	0.4252799749374389	-803.992919921875	-0.0	-0.0	-0.0	-0.0	-0.0	-0.0	-0.0	-0.0	-0.0	-0.0	-0.0	-0.0
0.47150000000000003	-0.0	-0.0	-0.0	-4.507644176483154	-1.1351569890975952	-807.9890747070312	-0.0	-0.0	-0.0	-0.0	-0.0	-0.0	-0.0	-0.0	-0.0	-0.0	-0.0	-0.0
0.47200000000000003	-0.0	-0.0	-0.0	-2.900252342224121	-2.91765570640564	-810.0289916992188	-0.0	-0.0	-0.0	-0.0	-0.0	-0.0	-0.0	-0.0	-0.0	-0.0	-0.0	-0.0
0.47250000000000003	-0.0	-0.0	-0.0	-1.139880895614624	-4.47831392288208	-809.13525390625	-0.0	-0.0	-0.0	-0.0	-0.0	-0.0	-0.0	-0.0	-0.0	-0.0	-0.0	-0.0
0.47300000000000003	-0.0	-0.0	-0.0	0.2458547353744506	-5.389236927032471	-809.9277954101562	-0.0	-0.0	-0.0	-0.0	-0.0	-0.0	-0.0	-0.0	-0.0	-0.0	-0.0	-0.0
0.47350000000000003	-0.0	-0.0	-0.0	0.4895332455635071	-6.149997711181641	-806.0604858398438	-0.0	-0.0	-0.0	-0.0	-0.0	-0.0	-0.0	-0.0	-0.0	-0.0	-0.0	-0.0
0.47400000000000003	-0.0	-0.0	-0.0	0.5376482605934143	-6.104240894317627	-800.572998046875	-0.0	-0.0	-0.0	-0.0	-0.0	-0.0	-0.0	-0.0	-0.0	-0.0	-0.0	-0.0
0.47450000000000003	-0.0	-0.0	-0.0	0.7328229546546936	-6.663129806518555	-795.01806640625	-0.0	-0.0	-0.0	-0.0	-0.0	-0.0	-0.0	-0.0	-0.0	-0.0	-0.0	-0.0
0.47500000000000003	-0.0	-0.0	-0.0	0.4676859676837921	-6.222862720489502	-788.5758056640625	-0.0	-0.0	-0.0	-0.0	-0.0	-0.0	-0.0	-0.0	-0.0	-0.0	-0.0	-0.0
0.47550000000000003	-0.0	-0.0	-0.0	-0.5784584879875183	-4.920933246612549	-783.3531494140625	-0.0	-0.0	-0.0	-0.0	-0.0	-0.0	-0.0	-0.0	-0.0	-0.0	-0.0	-0.0
0.47600000000000003	-0.0	-0.0	-0.0	-1.4675391912460327	-4.124495983123779	-780.7334594726562	-0.0	-0.0	-0.0	-0.0	-0.0	-0.0	-0.0	-0.0	-0.0	-0.0	-0.0	-0.0
0.47650000000000003	-0.0	-0.0	-0.0	-1.7318501472473145	-3.4822838306427	-779.2730712890625	-0.0	-0.0	-0.0	-0.0	-0.0	-0.0	-0.0	-0.0	-0.0	-0.0	-0.0	-0.0
0.47700000000000004	-0.0	-0.0	-0.0	-2.537627935409546	-2.8124749660491943	-776.9830322265625	-0.0	-0.0	-0.0	-0.0	-0.0	-0.0	-0.0	-0.0	-0.0	-0.0	-0.0	-0.0
0.47750000000000004	-0.0	-0.0	-0.0	-2.362386465072632	-2.007124423980713	-776.6427001953125	-0.0	-0.0	-0.0	-0.0	-0.0	-0.0	-0.0	-0.0	-0.0	-0.0	-0.0	-0.0
0.47800000000000004	-0.0	-0.0	-0.0	-2.808366298675537	-1.1123666763305664	-778.4085693359375	-0.0	-0.0	-0.0	-0.0	-0.0	-0.0	-0.0	-0.0	-0.0	-0.0	-0.0	-0.0
0.47850000000000004	-0.0	-0.0	-0.0	-3.2189295291900635	-0.7056986689567566	-782.646728515625	-0.0	-0.0	-0.0	-0.0	-0.0	-0.0	-0.0	-0.0	-0.0	-0.0	-0.0	-0.0
